<?xml version="1.0" encoding="utf-8"?>
<!-- Generator: Adobe Illustrator 16.0.0, SVG Export Plug-In . SVG Version: 6.00 Build 0)  -->
<!DOCTYPE svg PUBLIC "-//W3C//DTD SVG 1.1//EN" "http://www.w3.org/Graphics/SVG/1.1/DTD/svg11.dtd">
<svg version="1.1" id="Layer_1" xmlns="http://www.w3.org/2000/svg" xmlns:xlink="http://www.w3.org/1999/xlink" x="0px" y="0px"
	 width="113.1px" height="113.1px" viewBox="0 0 113.1 113.1" enable-background="new 0 0 113.1 113.1" xml:space="preserve">
<g>
	<circle fill="#B6DEC7" cx="56.3" cy="56.6" r="35.9"/>
</g>
<g>
	<circle fill="#2A3593" cx="1559.3" cy="56.6" r="35.9"/>
</g>
<g>
	<g>
		<circle fill="#2A3593" cx="2461.2" cy="56.6" r="35.9"/>
	</g>
	<path fill="#B6DEC7" d="M2461.2,20.7c-4.3,0-8.4,0.7-12.2,2.1c-4.5,8.2-7.3,19.1-7.3,31.2c0,15.6,4.7,29.3,11.8,37.6
		c2.5,0.5,5.1,0.8,7.7,0.8c17.9,0,32.7-13.1,35.4-30.1c0.2-2.2,0.4-4.4,0.4-6.7C2496.5,36.2,2480.6,20.7,2461.2,20.7z"/>
</g>
<g>
	<g>
		<circle fill="#2A3593" cx="2361" cy="56.6" r="35.9"/>
	</g>
	<path fill="#B6DEC7" d="M2361,20.7c-3.5,0-6.9,0.5-10,1.4c-3.7,8.6-5.9,19.6-5.9,31.7c0,15.2,3.6,28.9,9.2,38
		c2.2,0.4,4.5,0.7,6.8,0.7c18.4,0,33.5-13.8,35.6-31.6c0.1-1.7,0.2-3.5,0.2-5.2C2396.3,36.2,2380.5,20.7,2361,20.7z"/>
</g>
<g>
	<g>
		<circle fill="#2A3593" cx="2260.8" cy="56.6" r="35.9"/>
	</g>
	<path fill="#B6DEC7" d="M2260.8,20.7c-1.2,0-2.4,0.1-3.6,0.2c-2,9.2-3.1,20-3.1,31.6c0,15.3,2,29.3,5.2,39.9c0.5,0,1,0,1.5,0
		c18.6,0,34-14.2,35.7-32.4c0.1-1.5,0.1-3,0.1-4.5C2296,36.2,2280.2,20.7,2260.8,20.7z"/>
</g>
<g>
	<g>
		<circle fill="#B6DEC7" cx="2160.6" cy="56.6" r="35.9"/>
	</g>
	<path fill="#2A3593" d="M2124.7,55.1c0,1.8,0.1,3.6,0.2,5.4c1.9,17.6,16.5,31.3,34.4,31.9c3.3-10.7,5.3-25,5.3-40.8
		c0-11.3-1-21.9-2.9-30.9c-0.4,0-0.8,0-1.3,0C2141.2,20.7,2125.5,36,2124.7,55.1z"/>
</g>
<g>
	<g>
		<circle fill="#B6DEC7" cx="2060.4" cy="56.6" r="35.9"/>
	</g>
	<path fill="#2A3593" d="M2024.5,55c0.1,3.2,0.4,6.2,0.8,9.2c3.4,15.7,17,27.5,33.5,28.2c7.6-7.4,12.9-22.5,12.9-39.9
		c0-12.3-2.6-23.4-6.8-31.5c-1.5-0.2-3-0.3-4.5-0.3C2041.1,20.7,2025.3,35.9,2024.5,55z"/>
</g>
<g>
	<g>
		<circle fill="#B6DEC7" cx="1960.1" cy="56.6" r="35.9"/>
	</g>
	<path fill="#2A3593" d="M1924.3,54.9c0.2,4.7,0.8,9.2,1.9,13.4c4.9,14,18.2,24.1,33.9,24.1c0.1,0,0.1,0,0.2,0
		c10.8-5.6,18.6-21.3,18.6-39.8c0-12-3.3-22.8-8.5-30.4c-3.3-1-6.8-1.5-10.3-1.5C1940.9,20.7,1925.2,35.9,1924.3,54.9z"/>
</g>
<g>
	<g>
		<circle fill="#B6DEC7" cx="1859.9" cy="56.6" r="35.9"/>
	</g>
	<path fill="#2A3593" d="M1856.7,92.3c15.3-1.6,27.3-17,27.3-35.7s-12-34.1-27.3-35.7c-18.3,1.6-32.7,17-32.7,35.7
		S1838.4,90.7,1856.7,92.3z"/>
</g>
<g>
	<g>
		<circle fill="#B6DEC7" cx="1759.7" cy="56.6" r="35.9"/>
	</g>
	<path fill="#2A3593" d="M1758.5,92.4c17.9-0.7,32.2-16.5,32.2-35.8s-14.3-35.2-32.2-35.8c-19.2,0.7-34.6,16.5-34.6,35.8
		S1739.2,91.7,1758.5,92.4z"/>
</g>
<g>
	<g>
		<circle fill="#B6DEC7" cx="1659.5" cy="56.6" r="35.9"/>
	</g>
	<path fill="#2A3593" d="M1659,92.4c19-0.3,34.3-16.2,34.3-35.9S1678,21,1659,20.7c-19.6,0.3-35.4,16.2-35.4,35.9
		S1639.4,92.1,1659,92.4z"/>
</g>
<g>
	<g>
		<circle fill="#B6DEC7" cx="1459.1" cy="56.6" r="35.9"/>
	</g>
	<path fill="#2A3593" d="M1459.6,20.7c-19.1,0.2-34.6,16.2-34.6,35.9s15.4,35.6,34.6,35.9c19.6-0.2,35.4-16.2,35.4-35.9
		S1479.2,20.9,1459.6,20.7z"/>
</g>
<g>
	<g>
		<circle fill="#B6DEC7" cx="1358.9" cy="56.6" r="35.9"/>
	</g>
	<path fill="#2A3593" d="M1359.7,20.7C1341,21.1,1326,37,1326,56.6s15,35.5,33.7,35.9c19.5-0.4,35.1-16.3,35.1-35.9
		S1379.2,21.1,1359.7,20.7z"/>
</g>
<g>
	<g>
		<circle fill="#B6DEC7" cx="1258.7" cy="56.6" r="35.9"/>
	</g>
	<path fill="#2A3593" d="M1259.9,20.7c-18.1,0.6-32.6,16.4-32.6,35.8s14.5,35.2,32.6,35.8c19.3-0.6,34.7-16.4,34.7-35.8
		S1279.2,21.3,1259.9,20.7z"/>
</g>
<g>
	<g>
		<circle fill="#B6DEC7" cx="1158.5" cy="56.6" r="35.9"/>
	</g>
	<path fill="#2A3593" d="M1161.1,20.8c-16.1,1.3-28.8,16.8-28.8,35.8s12.7,34.4,28.8,35.8c18.6-1.3,33.3-16.8,33.3-35.8
		S1179.7,22.1,1161.1,20.8z"/>
</g>
<g>
	<g>
		<circle fill="#B6DEC7" cx="1058.3" cy="56.6" r="35.9"/>
	</g>
	<path fill="#2A3593" d="M1062.8,21c-13.8,2.2-24.5,17.3-24.5,35.6s10.7,33.4,24.5,35.6c17.7-2.2,31.4-17.3,31.4-35.6
		S1080.5,23.2,1062.8,21z"/>
</g>
<g>
	<g>
		<circle fill="#B6DEC7" cx="958.1" cy="56.6" r="35.9"/>
	</g>
	<path fill="#2A3593" d="M994,57.4c0-1.7-0.1-3.3-0.2-5c-2-17.9-17.2-31.8-35.6-31.8c-1,0-2,0.1-3,0.1c-5.9,8.7-9.8,22.6-9.8,38.3
		c0,12.7,2.5,24.2,6.6,32.8c2,0.3,4.1,0.5,6.2,0.5C977.7,92.4,993.5,76.8,994,57.4z"/>
</g>
<g>
	<g>
		<circle fill="#B6DEC7" cx="857.9" cy="56.6" r="35.9"/>
	</g>
	<path fill="#2A3593" d="M857.9,20.7c-0.3,0-0.5,0-0.8,0c-6.4,8.1-5.5,22.6-5.5,35.9c0,11.8,1.7,26.2,6.5,35.9
		c19.7-0.1,35.6-16.1,35.6-35.9C893.8,36.7,877.7,20.7,857.9,20.7z"/>
</g>
<g>
	<g>
		<circle fill="#2A3593" cx="757.7" cy="56.6" r="35.9"/>
	</g>
	<path fill="#B6DEC7" d="M757.7,92.4c0.2,0,0.4,0,0.6,0c7.9-6.7,6-21.3,6-35.9c0-14.5-2-29-9.9-35.7c-18.3,1.7-32.6,17-32.6,35.7
		C721.8,76.4,737.9,92.4,757.7,92.4z"/>
</g>
<g>
	<g>
		<circle fill="#2A3593" cx="657.5" cy="56.6" r="35.9"/>
	</g>
	<path fill="#B6DEC7" d="M651.8,92c15.4-2.7,19.2-17.6,19.2-35.4c0-17.5-8.7-32.1-20.1-35.3c-16.6,3.1-29.2,17.7-29.2,35.3
		C621.6,74.4,634.7,89.2,651.8,92z"/>
</g>
<g>
	<g>
		<circle fill="#2A3593" cx="557.3" cy="56.6" r="35.9"/>
	</g>
	<path fill="#B6DEC7" d="M552.9,92.2c13.8-2.2,24.5-17.3,24.5-35.6S566.7,23.2,552.9,21c-17.7,2.2-31.4,17.3-31.4,35.6
		S535.2,90,552.9,92.2z"/>
</g>
<g>
	<g>
		<circle fill="#2A3593" cx="457.1" cy="56.6" r="35.9"/>
	</g>
	<path fill="#B6DEC7" d="M453.6,92.3c14.9-1.8,26.5-17.1,26.5-35.7s-11.6-33.9-26.5-35.7c-18.1,1.8-32.3,17.1-32.3,35.7
		S435.4,90.5,453.6,92.3z"/>
</g>
<g>
	<g>
		<circle fill="#2A3593" cx="356.9" cy="56.6" r="35.9"/>
	</g>
	<path fill="#B6DEC7" d="M354.8,92.4c16.7-1.1,29.9-16.7,29.9-35.8s-13.2-34.7-29.9-35.8C336,21.9,321,37.5,321,56.6
		S336,91.3,354.8,92.4z"/>
</g>
<g>
	<g>
		<circle fill="#2A3593" cx="256.7" cy="56.6" r="35.9"/>
	</g>
	<path fill="#B6DEC7" d="M255.4,92.4c17.8-0.7,32-16.5,32-35.8s-14.2-35.1-32-35.8c-19.2,0.7-34.5,16.5-34.5,35.8
		S236.2,91.7,255.4,92.4z"/>
</g>
<g>
	<g>
		<circle fill="#2A3593" cx="156.5" cy="56.6" r="35.9"/>
	</g>
	<path fill="#B6DEC7" d="M155.6,92.4c18.4-0.5,33.1-16.4,33.1-35.9s-14.7-35.3-33.1-35.9c-19.4,0.5-34.9,16.4-34.9,35.9
		S136.2,91.9,155.6,92.4z"/>
</g>
<g>
	<g>
		<circle fill="#2A3593" cx="2866.5" cy="56.6" r="35.9"/>
	</g>
	<path fill="#B6DEC7" d="M2867.3,20.7c-18.6,0.4-33.6,16.3-33.6,35.9s15,35.4,33.6,35.9c19.4-0.4,35.1-16.3,35.1-35.9
		S2886.8,21.1,2867.3,20.7z"/>
</g>
<g>
	<g>
		<circle fill="#2A3593" cx="2766.3" cy="56.6" r="35.9"/>
	</g>
	<path fill="#B6DEC7" d="M2767.4,20.7c-18.1,0.6-32.7,16.4-32.7,35.9s14.5,35.3,32.7,35.8c19.3-0.6,34.8-16.4,34.8-35.8
		S2786.7,21.3,2767.4,20.7z"/>
</g>
<g>
	<g>
		<circle fill="#2A3593" cx="2666.1" cy="56.6" r="35.9"/>
	</g>
	<path fill="#B6DEC7" d="M2668.3,20.8c-16.7,1.1-29.9,16.7-29.9,35.8s13.2,34.7,29.9,35.8c18.8-1.1,33.7-16.7,33.7-35.8
		S2687.1,21.9,2668.3,20.8z"/>
</g>
<g>
	<g>
		<circle fill="#2A3593" cx="2561.4" cy="56.6" r="35.9"/>
	</g>
	<path fill="#B6DEC7" d="M2561.4,20.7c-4.1,0-8.1,0.7-11.8,2c-7,7.7-11.5,19.6-11.5,33.1c0,14.9,5.5,27.9,13.8,35.3
		c3,0.8,6.3,1.3,9.6,1.3c18.9,0,34.4-14.7,35.8-33.3c0.1-1,0.1-1.9,0.1-2.9C2597.1,36.6,2581.1,20.7,2561.4,20.7z"/>
</g>
</svg>
